<?xml version="1.0" encoding="UTF-8" standalone="no"?>
<svg
   version="1.1"
   width="795.6441"
   height="181.4662"
   id="svg16"
   viewBox="0 0 795.6441 181.4662"
   sodipodi:docname="36e2b54ddb9763d65d4390e7f50682ac.cdr"
   xmlns:inkscape="http://www.inkscape.org/namespaces/inkscape"
   xmlns:sodipodi="http://sodipodi.sourceforge.net/DTD/sodipodi-0.dtd"
   xmlns="http://www.w3.org/2000/svg"
   xmlns:svg="http://www.w3.org/2000/svg">
  <defs
     id="defs20" />
  <sodipodi:namedview
     id="namedview18"
     pagecolor="#ffffff"
     bordercolor="#666666"
     borderopacity="1.0"
     inkscape:pageshadow="2"
     inkscape:pageopacity="0.0"
     inkscape:pagecheckerboard="0" />
  <path
     d="M 168.7104,12.7562 C 155.9541,0 135.4237,0 94.3622,0 H 87.1038 C 46.0429,0 25.5125,0 12.7563,12.7562 0.382,25.1304 0.0117,44.8213 7e-4,83.4735 0,84.6655 0,85.8753 0,87.1037 v 7.2591 c 0,41.0608 0,61.5913 12.7563,74.3475 12.1917,12.1911 31.4842,12.7309 69.0142,12.7549 1.7373,10e-4 3.5151,10e-4 5.3333,10e-4 h 7.2584 c 1.8189,0 3.5966,0 5.3353,-10e-4 37.5286,-0.024 56.8218,-0.5638 69.0129,-12.7549 12.7555,-12.7562 12.7555,-33.2867 12.7555,-74.3475 v -7.2591 c 0,-7.6425 0,-14.5738 -0.0816,-20.8761 -0.3587,-27.5584 -2.2921,-43.0896 -12.6739,-53.4714 z"
     style="fill:#08c908;fill-rule:evenodd"
     id="path2" />
  <path
     d="m 141.8837,75.4557 c 0,-4.4848 3.681,-8.1205 8.1658,-8.1205 4.4848,0 8.1658,3.6357 8.1658,8.1205 v 32.7545 c 0,4.4848 -3.681,8.1205 -8.1658,8.1205 -4.4848,0 -8.1658,-3.6357 -8.1658,-8.1205 z"
     style="fill:#ffffff;fill-rule:evenodd"
     id="path4" />
  <path
     d="m 112.85,54.5872 c 0,-4.4848 3.681,-8.1205 8.1658,-8.1205 4.4849,0 8.1658,3.6357 8.1658,8.1205 v 74.4922 c 0,4.4848 -3.6809,8.1205 -8.1658,8.1205 -4.4848,0 -8.1658,-3.6357 -8.1658,-8.1205 z"
     style="fill:#ffffff;fill-rule:evenodd"
     id="path6" />
  <path
     d="m 83.815,75.4557 c 0,-4.4848 3.6817,-8.1205 8.1665,-8.1205 4.4848,0 8.1658,3.6357 8.1658,8.1205 v 32.7545 c 0,4.4848 -3.681,8.1205 -8.1658,8.1205 -4.4848,0 -8.1665,-3.6357 -8.1665,-8.1205 z"
     style="fill:#ffffff;fill-rule:evenodd"
     id="path8" />
  <path
     d="m 54.7773,87.2504 c 0,-4.4848 3.681,-8.1205 8.1658,-8.1205 4.4848,0 8.1658,3.6357 8.1658,8.1205 v 9.1644 c 0,4.4848 -3.681,8.1205 -8.1658,8.1205 -4.4848,0 -8.1658,-3.6357 -8.1658,-8.1205 z"
     style="fill:#ffffff;fill-rule:evenodd"
     id="path10" />
  <path
     d="m 25.7429,87.2504 c 0,-4.4848 3.681,-8.1205 8.1658,-8.1205 4.4848,0 8.1658,3.6357 8.1658,8.1205 v 9.1644 c 0,4.4848 -3.681,8.1205 -8.1658,8.1205 -4.4848,0 -8.1658,-3.6357 -8.1658,-8.1205 z"
     style="fill:#ffffff;fill-rule:evenodd"
     id="path12" />
  <path
     d="m 281.0742,95.3011 c 0.9739,2.6789 1.4609,5.5204 1.4609,8.5238 0,2.2729 -0.284,4.4642 -0.8525,6.5753 -0.5679,2.1104 -1.38,4.0993 -2.4348,5.9662 -1.38,2.4355 -3.1255,4.5864 -5.2359,6.4533 -2.1103,1.8669 -4.4649,3.3689 -7.0622,4.5054 -1.299,0.5678 -2.7599,1.0555 -4.3833,1.4608 -0.893,0.1626 -1.8066,0.3045 -2.74,0.4266 -0.9335,0.1214 -1.8875,0.1825 -2.8614,0.1825 h -34.0932 l -4.262,-17.047 h 38.5987 c 2.3538,-0.0809 4.3229,-0.9334 5.9052,-2.5569 1.5829,-1.6234 2.3744,-3.6124 2.3744,-5.9662 0,-2.3539 -0.8319,-4.3634 -2.4958,-6.0273 -1.6639,-1.6639 -3.6735,-2.4965 -6.0273,-2.4965 h -17.047 c -3.0033,0 -5.8442,-0.487 -8.5231,-1.4609 -1.6234,-0.5679 -3.1453,-1.2785 -4.5664,-2.131 -1.4204,-0.8525 -2.7393,-1.8463 -3.9567,-2.9828 -3.166,-2.8415 -5.5205,-6.3318 -7.0623,-10.4716 -0.9746,-2.679 -1.4616,-5.5198 -1.4616,-8.5238 0,-3.0034 0.487,-5.8442 1.4616,-8.5232 0.2435,-0.6495 0.5068,-1.3189 0.7915,-2.0088 0.2839,-0.69 0.6289,-1.3601 1.0349,-2.0096 1.5418,-2.6783 3.4904,-5.0122 5.8442,-7.0012 2.3539,-1.989 4.9924,-3.5109 7.9148,-4.5658 0.487,-0.1625 0.9739,-0.3045 1.4609,-0.4266 0.4869,-0.1214 0.9746,-0.2633 1.4615,-0.4259 0.893,-0.1625 1.8059,-0.3045 2.7393,-0.4259 0.9335,-0.1221 1.8875,-0.1831 2.8614,-0.1831 h 29.832 l 4.2619,17.0469 h -34.3373 c -2.3539,0.081 -4.3223,0.9335 -5.9053,2.5569 -1.5829,1.6234 -2.3744,3.6124 -2.3744,5.9663 0,2.3545 0.8319,4.3634 2.4958,6.0273 1.6646,1.6645 3.6735,2.4965 6.0273,2.4965 h 17.047 c 3.0034,0 5.8449,0.4869 8.5231,1.4609 1.6241,0.5685 3.146,1.2784 4.5665,2.1309 1.4204,0.8525 2.7393,1.847 3.9573,2.9835 3.166,2.8408 5.5198,6.3311 7.0623,10.471 z m 52.9666,-51.1402 c 4.1405,0 8.0163,0.7914 11.6287,2.3744 3.6124,1.583 6.7578,3.7139 9.4367,6.3929 2.6783,2.6782 4.8092,5.8243 6.3922,9.4367 1.583,3.6117 2.3744,7.4881 2.3744,11.628 0,4.1398 -0.7914,8.0163 -2.3744,11.6287 -1.583,3.6117 -3.7139,6.7577 -6.3922,9.436 -2.6789,2.6789 -5.8243,4.8099 -9.4367,6.3928 -3.6124,1.583 -7.4882,2.3745 -11.6287,2.3745 H 312.7326 V 129.395 H 295.6857 V 44.1609 Z m 0,42.617 c 1.786,0 3.4499,-0.345 4.9924,-1.0349 1.5425,-0.69 2.9018,-1.6029 4.0795,-2.7393 1.1769,-1.1365 2.0898,-2.476 2.7393,-4.0185 0.6495,-1.5425 0.9739,-3.2064 0.9739,-4.9923 0,-1.786 -0.3244,-3.4499 -0.9739,-4.9924 -0.6495,-1.5425 -1.5624,-2.9018 -2.7393,-4.0788 -1.1777,-1.1769 -2.537,-2.0905 -4.0795,-2.74 -1.5425,-0.6495 -3.2064,-0.9739 -4.9924,-0.9739 h -21.3082 v 25.5701 z m 93.5138,-42.617 17.047,85.2341 h -17.047 l -3.4094,-17.047 h -36.4073 l -3.4087,17.047 h -17.047 l 17.047,-85.2341 z m -36.4073,51.1402 h 29.5885 L 413.917,61.2078 H 397.9661 Z M 510.1097,44.1609 484.5396,97.3717 V 129.395 H 467.4927 V 97.4931 L 441.9226,44.1609 h 17.047 l 17.0469,34.0939 17.0463,-34.0939 z m 76.4675,0 -2.0706,17.0469 H 561.0064 V 129.395 H 543.9602 V 61.2078 H 520.46 l -2.0706,-17.0469 z m 30.1969,0 V 129.395 H 599.7272 V 44.1609 Z m 72.8139,0 -4.2612,17.0469 h -29.832 v 17.047 h 17.047 v 17.0463 h -17.047 V 129.395 H 638.4479 V 44.1609 Z m 61.247,0 17.047,85.2341 h -17.047 l -3.4094,-17.047 h -36.4073 l -3.4087,17.047 h -17.047 l 17.047,-85.2341 z m -36.4073,51.1402 h 29.5885 l -6.8188,-34.0933 h -15.9509 z m 81.2164,-51.1402 v 85.2341 h -17.047 V 44.1609 Z"
     style="fill:#ffffff;fill-rule:evenodd"
     id="path14" />
</svg>
